<svg width="119" height="60" viewBox="0 0 119 60" fill="none" xmlns="http://www.w3.org/2000/svg">
<path d="M40.9191 45.7376C41.1213 44.6185 41.5258 43.6276 42.1325 42.7648C42.7527 41.9019 43.5077 41.2345 44.3975 40.7627C45.2873 40.2773 46.2176 40.0346 47.1883 40.0346C48.0646 40.0346 48.7994 40.2099 49.3926 40.5604C49.9858 40.8975 50.4308 41.3222 50.7274 41.8345L51.0105 40.2166H53.3362L51.3745 51.3596H49.0488L49.3522 49.7013C48.8668 50.2271 48.2534 50.6653 47.5119 51.0158C46.7838 51.3664 45.9884 51.5416 45.1255 51.5416C44.2896 51.5416 43.5414 51.3529 42.8807 50.9754C42.2336 50.5979 41.7213 50.0653 41.3438 49.3777C40.9798 48.6767 40.7978 47.8745 40.7978 46.9712C40.7978 46.5667 40.8382 46.1555 40.9191 45.7376ZM50.0398 45.778C50.0937 45.5218 50.1207 45.2455 50.1207 44.9489C50.1207 44.0456 49.851 43.3377 49.3117 42.8254C48.7859 42.2996 48.1253 42.0367 47.3299 42.0367C46.7366 42.0367 46.1569 42.185 45.5907 42.4816C45.0244 42.7648 44.5323 43.1894 44.1144 43.7557C43.6964 44.3085 43.42 44.9691 43.2852 45.7376C43.2313 45.9937 43.2043 46.2701 43.2043 46.5667C43.2043 47.4835 43.4672 48.2115 43.993 48.7508C44.5323 49.2766 45.1997 49.5395 45.9951 49.5395C46.5883 49.5395 47.1681 49.3912 47.7343 49.0946C48.3006 48.798 48.7927 48.3666 49.2106 47.8003C49.6286 47.2206 49.9049 46.5465 50.0398 45.778ZM58.5079 51.5416C57.7394 51.5416 57.0384 51.4135 56.4047 51.1574C55.771 50.8877 55.2722 50.517 54.9082 50.0451C54.5442 49.5598 54.3622 49.007 54.3622 48.3868C54.3622 48.2789 54.3756 48.1306 54.4026 47.9419H56.6474C56.5935 48.4542 56.7485 48.8789 57.1125 49.216C57.4765 49.553 57.9889 49.7215 58.6495 49.7215C59.2966 49.7215 59.8292 49.6069 60.2471 49.3777C60.6651 49.1485 60.874 48.8115 60.874 48.3666C60.874 47.9891 60.6988 47.6857 60.3482 47.4565C60.0112 47.2273 59.4652 46.9712 58.7102 46.6881C57.9956 46.4049 57.4159 46.142 56.971 45.8993C56.526 45.6567 56.1418 45.3264 55.8182 44.9084C55.4947 44.477 55.3329 43.9444 55.3329 43.3108C55.3329 42.6636 55.5149 42.0974 55.8789 41.612C56.2564 41.1132 56.7755 40.7289 57.4361 40.4593C58.1102 40.1762 58.8787 40.0346 59.7415 40.0346C60.5235 40.0346 61.2178 40.1694 61.8245 40.4391C62.4447 40.6952 62.9233 41.066 63.2604 41.5514C63.6109 42.0232 63.7862 42.5693 63.7862 43.1894C63.7862 43.3782 63.7794 43.5198 63.766 43.6141H61.5819C61.6358 43.0883 61.4807 42.6636 61.1167 42.3401C60.7662 42.0165 60.2606 41.8547 59.6 41.8547C59.0202 41.8547 58.5484 41.976 58.1844 42.2187C57.8338 42.4614 57.6585 42.7917 57.6585 43.2097C57.6585 43.6276 57.8406 43.9647 58.2046 44.2208C58.5686 44.4635 59.1281 44.7331 59.8831 45.0298C60.5707 45.2994 61.1302 45.5556 61.5616 45.7982C61.9931 46.0409 62.3638 46.3645 62.6739 46.7689C62.984 47.1734 63.139 47.679 63.139 48.2857C63.139 48.9463 62.9368 49.526 62.5323 50.0249C62.1414 50.5102 61.5953 50.8877 60.8943 51.1574C60.1932 51.4135 59.3977 51.5416 58.5079 51.5416ZM68.6029 38.7403C68.2389 38.7403 67.9423 38.6257 67.7131 38.3965C67.4839 38.1673 67.3693 37.8775 67.3693 37.5269C67.3693 37.0551 67.5446 36.6506 67.8951 36.3135C68.2592 35.963 68.6704 35.7877 69.1287 35.7877C69.4928 35.7877 69.7826 35.9023 69.9983 36.1315C70.2275 36.3607 70.3421 36.6506 70.3421 37.0011C70.3421 37.473 70.1669 37.8842 69.8163 38.2347C69.4658 38.5718 69.0613 38.7403 68.6029 38.7403ZM69.4725 40.2166L67.5109 51.3596H65.2054L67.1671 40.2166H69.4725ZM78.1619 40.0346C79.3348 40.0346 80.2651 40.3514 80.9527 40.9851C81.6538 41.6053 82.0043 42.5018 82.0043 43.6748C82.0043 43.9714 81.9706 44.3422 81.9032 44.7871L80.7302 51.3596H78.445L79.5573 45.1309C79.6112 44.7534 79.6382 44.4837 79.6382 44.3219C79.6382 43.5804 79.4292 43.0142 79.0113 42.6232C78.6068 42.2322 78.0406 42.0367 77.3125 42.0367C76.4362 42.0367 75.6947 42.3064 75.088 42.8456C74.4947 43.3714 74.1172 44.1332 73.9555 45.1309V45.0702L72.8432 51.3596H70.5377L72.4994 40.2166H74.8048L74.5824 41.5109C75.0408 41.0525 75.5801 40.6952 76.2002 40.4391C76.8339 40.1694 77.4878 40.0346 78.1619 40.0346ZM83.8934 45.7376C84.0957 44.6185 84.5001 43.6276 85.1068 42.7648C85.727 41.9019 86.482 41.2345 87.3718 40.7627C88.2616 40.2773 89.1919 40.0346 90.1626 40.0346C91.039 40.0346 91.7737 40.2099 92.367 40.5604C92.9602 40.8975 93.4051 41.3222 93.7017 41.8345L93.9848 40.2166H96.3105L94.3488 51.3596H92.0232L92.3265 49.7013C91.8412 50.2271 91.2277 50.6653 90.4862 51.0158C89.7582 51.3664 88.9627 51.5416 88.0999 51.5416C87.264 51.5416 86.5157 51.3529 85.8551 50.9754C85.2079 50.5979 84.6956 50.0653 84.3181 49.3777C83.9541 48.6767 83.7721 47.8745 83.7721 46.9712C83.7721 46.5667 83.8125 46.1555 83.8934 45.7376ZM93.0141 45.778C93.068 45.5218 93.095 45.2455 93.095 44.9489C93.095 44.0456 92.8254 43.3377 92.2861 42.8254C91.7603 42.2996 91.0996 42.0367 90.3042 42.0367C89.711 42.0367 89.1312 42.185 88.565 42.4816C87.9987 42.7648 87.5066 43.1894 87.0887 43.7557C86.6708 44.3085 86.3944 44.9691 86.2596 45.7376C86.2056 45.9937 86.1787 46.2701 86.1787 46.5667C86.1787 47.4835 86.4416 48.2115 86.9674 48.7508C87.5066 49.2766 88.174 49.5395 88.9695 49.5395C89.5627 49.5395 90.1424 49.3912 90.7087 49.0946C91.2749 48.798 91.767 48.3666 92.185 47.8003C92.6029 47.2206 92.8793 46.5465 93.0141 45.778ZM100.613 48.2655C100.586 48.4542 100.572 48.5756 100.572 48.6295C100.572 48.9126 100.66 49.1216 100.835 49.2564C101.01 49.3777 101.3 49.4384 101.705 49.4384H103.12L102.777 51.3596H100.956C100.067 51.3596 99.3858 51.1844 98.9139 50.8338C98.442 50.4698 98.2061 49.8968 98.2061 49.1148C98.2061 48.8182 98.2331 48.5351 98.287 48.2655L99.379 42.0974H98.0645L98.3881 40.2166H99.7228L100.208 37.446H102.534L102.049 40.2166H104.738L104.415 42.0974H101.705L100.613 48.2655ZM112.667 40.0346C113.786 40.0346 114.683 40.3514 115.357 40.9851C116.031 41.6053 116.368 42.4951 116.368 43.6546C116.368 43.9647 116.334 44.3422 116.267 44.7871L115.094 51.3596H112.809L113.921 45.1309C113.975 44.7534 114.002 44.4837 114.002 44.3219C114.002 43.5804 113.793 43.0142 113.375 42.6232C112.97 42.2322 112.404 42.0367 111.676 42.0367C110.8 42.0367 110.058 42.3064 109.452 42.8456C108.858 43.3714 108.481 44.1332 108.319 45.1309V45.0904L107.207 51.3596H104.901L107.551 36.3944H109.856L108.946 41.5109C109.418 41.039 109.977 40.675 110.625 40.4189C111.272 40.1627 111.953 40.0346 112.667 40.0346Z" fill="black"/>
<path d="M40.3147 18.9306C41.7803 18.9306 43.0016 19.4016 43.9786 20.3438C44.9557 21.286 45.4442 22.5596 45.4442 24.1648C45.4442 25.9793 44.9034 27.4449 43.8216 28.5616C42.7399 29.6782 41.4488 30.2365 39.9483 30.2365C38.9712 30.2365 38.1337 30.0621 37.4358 29.7131C36.7379 29.3642 36.0749 28.8058 35.4468 28.0381L30.9454 31.8068L36.0226 46.8291C36.3366 47.7015 36.6681 48.3994 37.0171 48.9228C37.4009 49.4462 37.8546 49.9696 38.378 50.4931C38.7618 50.8769 39.0236 51.191 39.1631 51.4352C39.3376 51.6446 39.4249 51.9063 39.4249 52.2204C39.4249 52.7787 39.1631 53.2149 38.6397 53.5289C38.1512 53.843 37.2788 54 36.0226 54H29.1657C27.4559 54 26.1822 53.6336 25.3447 52.9008C24.5421 52.1331 23.8791 50.8769 23.3557 49.1322L20.7386 40.3386L19.2207 41.5948L17.4934 47.8236C17.3538 48.2772 17.284 48.7134 17.284 49.1322C17.284 49.5509 17.3363 49.8998 17.441 50.179C17.5806 50.4582 17.7725 50.7548 18.0168 51.0688C18.3308 51.5225 18.4879 51.8889 18.4879 52.168C18.4879 52.2378 18.453 52.4123 18.3832 52.6914C18.2436 53.18 17.9296 53.5289 17.441 53.7383C16.9525 53.9128 16.2197 54 15.2426 54H2.94216C2.20937 54 1.65105 53.8779 1.26721 53.6336C0.848466 53.3893 0.639096 53.0578 0.639096 52.6391C0.639096 52.4297 0.691439 52.2029 0.796124 51.9586C0.935704 51.5748 1.16252 51.2782 1.47658 51.0688C1.79063 50.8595 1.98255 50.7373 2.05234 50.7024C2.61066 50.3535 3.0643 50.0045 3.41325 49.6556C3.7622 49.2717 4.0588 48.6611 4.30307 47.8236L10.6888 25.264C10.8284 24.8104 10.8982 24.3742 10.8982 23.9554C10.8982 23.5716 10.8284 23.2575 10.6888 23.0133C10.5842 22.7341 10.4271 22.4201 10.2178 22.0711C9.90371 21.6175 9.74668 21.2511 9.74668 20.9719C9.74668 20.8672 9.78158 20.6753 9.85137 20.3961C9.99095 19.9425 10.2876 19.6285 10.7412 19.454C11.2297 19.2446 11.9625 19.1399 12.9396 19.1399H25.24C25.9728 19.1399 26.5312 19.2621 26.915 19.5063C27.3337 19.7157 27.5431 20.0298 27.5431 20.4485C27.5431 20.623 27.4908 20.8498 27.3861 21.1289C27.2814 21.3732 27.1244 21.6 26.915 21.8094C26.7405 21.9839 26.5661 22.1234 26.3916 22.2281C26.252 22.2979 26.1473 22.3677 26.0775 22.4375C25.5192 22.7516 25.0656 23.1005 24.7166 23.4844C24.3677 23.8682 24.0711 24.4614 23.8268 25.264L21.6284 33.063L35.4992 21.0766C36.4064 20.3089 37.2265 19.768 37.9593 19.454C38.6921 19.105 39.4772 18.9306 40.3147 18.9306Z" fill="black"/>
</svg>
